<svg xmlns="http://www.w3.org/2000/svg" viewBox="0 0 1800 1080" role="img" aria-label="sidequests brand application board"><style>text{font-family:Manrope,Arial,sans-serif}.label{font-size:18px;font-weight:750;letter-spacing:2px}.copy{font-size:26px;font-weight:650}</style><rect width="1800" height="1080" fill="#ECEFF3"/><rect x="40" y="40" width="1720" height="1000" rx="36" fill="#FCFAF5"/><text x="86" y="102" fill="#0D1321" font-size="44" font-weight="750">Brand applications</text><g transform="translate(86 150)"><text class="label" fill="#667386">APP ICON</text><rect y="34" width="300" height="300" rx="68" fill="#0D1321"/><path d="M80 284V154a70 70 0 0 1 140 0v130" fill="none" stroke="#F8F3E8" stroke-width="20" stroke-linecap="round"/><path d="m150 166 13 27 27 13-27 13-13 27-13-27-27-13 27-13 13-27Z" fill="#F2B94B"/></g><g transform="translate(446 150)"><text class="label" fill="#667386">QR COUNTER SIGN</text><rect y="34" width="360" height="500" rx="18" fill="#F8F3E8" stroke="#0D1321" stroke-width="3"/><text x="180" y="110" text-anchor="middle" fill="#0D1321" class="copy">Something’s waiting here.</text><rect x="70" y="150" width="220" height="220" rx="10" fill="#fff" stroke="#0D1321" stroke-width="3" stroke-dasharray="10 10"/><text x="180" y="267" text-anchor="middle" fill="#667386" font-size="14">QR SAFE AREA</text><rect x="58" y="410" width="244" height="56" rx="12" fill="#0D1321"/><text x="180" y="446" text-anchor="middle" fill="#fff" font-size="20" font-weight="750">Scan to start</text></g><g transform="translate(866 150)"><text class="label" fill="#667386">PARTNER DECAL</text><circle cx="220" cy="254" r="214" fill="#F8F3E8" stroke="#0D1321" stroke-width="10"/><text x="220" y="108" text-anchor="middle" fill="#0D1321" font-size="27" font-weight="750" letter-spacing="3">FIND SIDEQUESTS HERE</text><path d="M158 320V220a62 62 0 0 1 124 0v100" fill="none" stroke="#0D1321" stroke-width="18" stroke-linecap="round"/><path d="m220 215 11 23 23 11-23 11-11 23-11-23-23-11 23-11 11-23Z" fill="#F2B94B"/><text x="220" y="405" text-anchor="middle" fill="#0D1321" font-size="20" font-weight="700" letter-spacing="4">SCAN · PLAY · EARN</text></g><g transform="translate(1366 150)"><text class="label" fill="#667386">SOCIAL AVATAR</text><circle cx="160" cy="194" r="155" fill="#0D1321"/><path d="M110 267V174a50 50 0 0 1 100 0v93" fill="none" stroke="#F8F3E8" stroke-width="17" stroke-linecap="round"/><path d="m160 177 10 21 21 10-21 10-10 21-10-21-21-10 21-10 10-21Z" fill="#F2B94B"/></g><g transform="translate(86 760)"><rect width="1628" height="220" rx="28" fill="#0D1321"/><text x="52" y="72" fill="#F2B94B" class="label">CAMPAIGN LINE</text><text x="52" y="142" fill="#F8F3E8" font-size="54" font-weight="750" letter-spacing="-2">Take the side street.</text><text x="1050" y="125" fill="#F8F3E8" font-size="46" font-weight="750">sidequests</text></g></svg>
